<?xml version="1.0" encoding="UTF-8" standalone="no"?><!DOCTYPE svg PUBLIC "-//W3C//DTD SVG 1.1//EN" "http://www.w3.org/Graphics/SVG/1.1/DTD/svg11.dtd"><svg width="100%" height="100%" viewBox="0 0 300 300" version="1.1" xmlns="http://www.w3.org/2000/svg" xmlns:xlink="http://www.w3.org/1999/xlink" xml:space="preserve" xmlns:affinity="https://www.affinity.studio/" style="fill-rule:evenodd;clip-rule:evenodd;stroke-linejoin:round;stroke-miterlimit:2;"><g id="e57d5062-df23-4538-854d-691d2f1f58ea.jpeg"><g><path d="M219.9,141.271c-1.149,0.864 -1.153,0.814 -1.251,0.888c-2.038,1.533 -1.334,2.471 -2.512,11.663c-0.405,3.157 -1.455,2.575 -4.1,4.446c-7.222,5.107 -7.199,5.127 -7.839,5.555c-1.971,1.317 -2.042,-0.444 -2.318,-1.149c-5.656,-14.418 -5.198,-14.559 -5.817,-15.757c-0.916,-1.776 -0.617,1.687 -0.604,1.84c0.013,0.148 -1.006,17.41 -1.076,19.079c-0.116,2.734 -0.273,2.858 -2.614,4.441c-4.668,3.157 -4.705,3.43 -5.08,3.137c-0.314,-0.245 1.446,-23.156 1.602,-28.359c0.207,-6.906 0.629,-15.578 0.695,-16.932c0.048,-0.986 5.497,-4.326 6.065,-4.261c0.35,0.04 1.025,1.891 1.089,2.066c4.593,12.596 4.644,12.575 4.876,13.571c0.021,0.092 1.356,4.767 1.119,0.479c-0.226,-4.09 0.595,-14.111 0.736,-19.92c0.07,-2.917 1.884,-2.258 6.439,-5.783c1.507,-1.166 0.928,1.833 0.898,2.405c-0.116,2.203 -1.224,23.249 -1.361,27.536c-0.21,6.587 -1.152,10.54 -0.497,11.409c1.027,1.363 0.244,-0.828 3.298,-20.767c0.291,-1.897 3.27,-21.35 3.774,-23.689c0.198,-0.92 0.185,-1.048 4.724,-4.009c3.489,-2.276 6.193,-4.609 6.238,-3.179c1.188,37.811 1.388,37.785 1.33,41.072c-0.008,0.45 -0.009,0.539 -4.471,3.646c-1.671,1.163 -1.599,1.192 -1.751,1.277c-0.96,0.535 -0.886,-0.438 -0.86,-10.399c-0.029,-0.048 -0.357,-0.595 -0.357,-0.595c-0.16,0.005 -0.213,0.284 -0.373,0.289Z" style="fill:#0e0e0e;"/><path d="M165.579,167.465c6.631,-14.023 6.977,-14.573 7.729,-15.766c2.166,-3.439 -1.293,-0.171 -1.371,-0.097c-0.434,0.41 -9.236,6.367 -10.465,7.465c-1.401,1.252 -0.416,-1.576 -0.211,-9.042c0.068,-2.475 0.773,-2.256 4.466,-4.802c1.591,-1.097 19.593,-13.505 20.012,-13.546c0.857,-0.084 0.675,0.485 0.086,10.304c-0.048,0.799 -6.416,14.401 -7.739,17.747c-2.635,6.662 -2.951,6.517 -5.609,13.179c-0.296,0.741 -1.94,2.861 -0.906,2.856c0.225,-0.001 0.023,-0.271 5.45,-3.978c3.282,-2.241 3.242,-2.246 6.438,-4.559c0.648,-0.469 1.076,-0.631 1.059,0.148c-0.09,4.085 -0.473,8.989 -0.534,9.769c-0.057,0.736 -0.182,0.798 -14.013,10.798c-9.968,7.207 -10.589,7.977 -10.759,6.995c-0.1,-0.581 0.627,-12.479 0.693,-13.564c0.158,-2.584 2.173,-5.559 5.676,-13.909Z" style="fill:#0a0a0a;"/><path d="M230.464,150.489l0.436,-0.069c-0.014,0.286 -0.028,0.572 -0.042,0.858c-1.297,1.139 -73.994,57.565 -76.066,58.935c-1.345,0.889 -1.433,-0.086 -12.978,-8.336c-41.276,-29.495 -41.121,-29.629 -44.723,-32.171c-13.315,-9.396 -15.257,-11.251 -20.799,-15.264c-2.514,-1.82 -6.923,-4.389 -5.219,-4.561c0.582,-0.059 20.521,12.081 70.316,45.632c11.013,7.42 12.126,8.486 12.925,8.274c0.009,-0.002 7.744,-5.295 9.465,-6.52c38.39,-27.314 38.53,-27.106 41.838,-29.516c6.463,-4.708 19.215,-13.15 24.848,-17.263Z" style="fill:#070707;"/><path d="M77.066,146.637c0.109,-2.967 0.051,-26.013 0.135,-36.859c0.017,-2.243 -4.381,-2.929 -5.235,-5.066c-0.687,-1.72 -0.355,-13.234 -0.355,-13.234l-2.662,-1.958l2.662,1.958c0,0 11.71,8.155 13.725,9.774c3.02,2.427 5.857,3.347 5.835,5.569c-0.107,10.864 0.401,11.469 -0.568,11.434c-0.06,-0.002 -4.059,-2.809 -5.003,-3.647c-1.861,-1.65 -0.422,1.256 -0.822,30.336c-0.094,6.838 0.391,8.566 -1.107,7.446c-4.874,-3.643 -6.209,-2.784 -6.605,-5.754Z" style="fill:#030303;"/><path d="M110.175,138.166c0.005,-1.386 0.06,-17.143 0.069,-17.329c0.028,-0.599 0.671,-0.582 6.559,4.085c5.099,4.042 6.617,3.807 6.557,6.464c-0.434,19.13 -0.299,19.104 -0.374,20.764c-0.048,1.048 -1.806,2.007 -2.092,2.604c-0.713,1.487 2.048,1.355 1.795,12.223c-0.239,10.261 0.657,10.727 -0.229,10.945c-0.309,0.076 -4.863,-3.096 -5.179,-3.429c-0.834,-0.88 0.381,-15.594 -1.059,-16.779c-1.01,-0.831 -0.607,1.87 -0.662,4.606c-0.183,9.066 -0.039,10.279 -0.287,10.509c-0.53,0.492 -5.422,-2.983 -5.523,-3.748c-0.138,-1.043 0.381,-28.81 0.426,-30.916Z" style="fill:#050505;"/><path d="M138.079,147.062c-0.026,3.252 -0.32,40.431 -0.591,40.648c-0.667,0.535 -0.742,-0.057 -9.117,-5.681c-3.759,-2.524 -3.448,-2.894 -3.425,-4.04c0.64,-32.817 0.618,-41.705 0.609,-45.332c-0.004,-1.83 3.492,1.713 7.394,4.431c0.365,0.254 3.041,2.119 4.448,3.325c0.911,0.781 0.75,1.313 0.682,6.649Z" style="fill:#050505;"/><path d="M153.311,198.258c-0.535,-0.129 -0.587,0.131 -1.227,-0.296c-3.042,-2.027 -3.898,-1.644 -4.427,-5.137c-1.717,-11.34 -1.87,-13.937 -1.942,-15.156c-0.241,-4.082 -0.735,0.625 -0.736,0.704c-0.006,0.953 0.342,0.931 0.278,11.908c-0.001,0.206 -0.014,2.449 -0.188,2.57c-0.337,0.234 -0.485,0.227 -4.431,-2.609c-0.905,-0.65 -1.015,-0.846 -0.755,-13.52c0.673,-32.812 -0.324,-34.543 1.106,-33.737c0.591,0.334 3.184,2.342 3.456,2.552c1.991,1.542 1.228,1.973 2.356,7.881c1.432,7.497 0.527,9.822 1.823,8.942c0.418,-0.284 -0.937,-13.351 0.403,-13.301c0.027,0.001 4.303,2.955 4.506,3.468c0.211,0.533 -0.257,34.835 -0.206,44.525c0.003,0.603 -0.008,0.572 -0.016,1.205Z" style="fill:#050505;"/><path d="M101.559,137.284c0,-0.134 0.022,-0.267 0.023,-0.401c0.006,-2.338 -0.005,-2.329 -0.004,-2.531c0.097,-19.505 -0.461,-21.192 0.936,-20.273c2.18,1.434 4.464,3.491 4.829,3.82c0.611,0.55 0.326,4.969 0.229,7.983c-0.627,19.568 0.273,19.705 -0.556,21.205c-0.951,1.721 -3.047,-0.19 -3.122,-0.195c-1.133,-0.077 -0.55,0.593 -0.661,4.828c-0.336,12.762 -0.048,13.193 -0.683,13.172c-0.147,-0.005 -5.344,-3.519 -5.652,-3.915c-0.089,-0.115 -0.29,-0.122 -0.057,-16.879c0.032,-2.327 -0.763,-2.014 -2.617,-3.49c-1.101,-0.877 -0.859,-1.152 -0.771,-19.812c0.06,-12.737 -0.002,-12.849 0.305,-13.026c0.405,-0.232 0.475,-0.075 4.768,3.334c1.777,1.412 0.852,1.862 0.888,17.741c0.015,6.642 -0.594,7.039 1.429,8.783c0.229,-0.012 0.141,0.18 0.383,0.168c0.025,-0.001 0.099,-0.005 0.226,-0.199c0.061,-0.093 0.047,-0.22 0.108,-0.313Z" style="fill:#050505;"/><path d="M165.487,140.845c-10.745,7.346 -11.063,7.608 -11.958,6.963c-3.701,-2.669 -3.679,-2.889 -3.483,-3.208c0.602,-0.978 63.885,-36.724 73.824,-43.197c0.105,-0.068 6.929,-3.481 1.574,0.181c-1.393,0.952 -13.826,8.965 -15.031,9.741c-3.616,2.33 -22.562,14.539 -44.926,29.52Z" style="fill:#0d0d0d;"/><path d="M131.334,145.496c0.863,0.329 1.076,0.27 1.108,1.163c0.057,1.573 -0.159,28.316 -0.19,28.395c-0.102,0.262 -1.57,0.599 -1.623,-1.719c-0.092,-3.966 0.397,-20.627 0.302,-27.533c0.135,-0.102 0.269,-0.204 0.404,-0.306Z" style="fill:#d9d9d9;"/><path d="M220.013,119.628c0.194,0.079 0.437,-0.121 0.63,-0.042c0.333,0.136 -0.068,4.501 -0.095,6.294c-0.095,6.253 -0.068,6.243 -0.083,6.786c-0.038,1.373 -1.902,1.908 -1.919,1.907c-0.493,-0.051 0.065,-0.358 1.467,-14.945Z" style="fill:#ebebeb;"/><path d="M115.878,144.521c0.053,-6.965 0.034,-6.928 -0.052,-9.746c-0.026,-0.842 1.613,-0.949 1.652,1.695c0.012,0.775 0.135,9.089 -0.072,9.684c-0.058,0.166 -1.172,1.064 -1.528,-1.633Z" style="fill:#d6d6d6;"/><path d="M230.9,150.42c0.142,0.445 0.272,0.47 -0.042,0.858c0.014,-0.286 0.028,-0.572 0.042,-0.858Z" style="fill:#b4b4b4;"/><path d="M219.9,141.271c0.16,-0.005 0.213,-0.284 0.373,-0.289c0,0 0.329,0.548 0.357,0.595c-0.243,-0.102 -0.487,-0.204 -0.73,-0.306Z" style="fill:#a0a0a0;"/><path d="M101.559,137.284c-0.061,0.093 -0.047,0.22 -0.108,0.313c-0.127,0.194 -0.201,0.198 -0.226,0.199c-0.242,0.012 -0.154,-0.18 -0.383,-0.168c0.239,-0.115 0.478,-0.229 0.717,-0.344Z" style="fill:#858585;"/><path d="M165.442,163.356c0.519,-0.124 0.708,-0.677 0.754,-0.18c0.003,0.036 0.023,0.252 -0.325,0.336c-0.148,0.035 -0.28,-0.191 -0.428,-0.156Z" style="fill:#dadada;"/></g></g></svg>